<?xml version="1.0" encoding="UTF-8"?>
<svg width="176px" height="65px" viewBox="0 0 176 65" version="1.1" xmlns="http://www.w3.org/2000/svg" xmlns:xlink="http://www.w3.org/1999/xlink">
    <title>logo-unico-campania2</title>
    <g id="Page-1" stroke="none" stroke-width="1" fill="none" fill-rule="evenodd">
        <g id="logo-unico-campania2" transform="translate(0.000566, -0.004027)" fill="#FFFFFF" fill-rule="nonzero">
            <path d="M172.534434,34.8290273 C172.657434,34.4290273 172.766434,34.0120273 172.868434,33.5960273 C172.928434,33.3520273 172.981434,33.1070273 173.030434,32.8610273 C173.055434,32.7500273 173.075434,32.6370273 173.097434,32.5240273 C173.279674,31.551605 173.396602,30.5680721 173.447434,29.5800273 C173.463434,29.2070273 173.476434,28.8330273 173.477743,28.4550273 C173.531589,18.3468041 166.456697,9.59990175 156.560434,7.5400273 C157.245434,7.7400273 167.727434,11.0160273 167.023434,24.8810273 C166.702434,31.2180273 163.106434,39.4920273 151.387434,39.1570273 L112.767434,39.1570273 C110.90064,39.1715484 109.050644,38.8036592 107.331434,38.0760273 C105.659365,37.366542 104.160457,36.303934 102.937434,34.9610273 C101.632882,33.5006061 100.62877,31.7975235 99.9824342,29.9490273 C99.2217761,27.764164 98.8527809,25.4621758 98.8924342,23.1490273 C98.8559732,20.8587419 99.1975586,18.5781272 99.9034342,16.3990273 C100.504346,14.5537192 101.472057,12.8489154 102.748434,11.3870273 C103.956085,10.030206 105.45147,8.96017047 107.125434,8.2550273 C108.903142,7.51930176 110.811636,7.15189114 112.735434,7.1750273 C113.800163,7.16336403 114.863597,7.25276476 115.911434,7.4420273 C116.734228,7.59373244 117.543005,7.81348723 118.329434,8.0990273 C118.964844,8.3308948 119.57828,8.61903906 120.162434,8.9600273 C120.689101,9.2740273 121.152768,9.5610273 121.553434,9.8210273 C121.954101,10.0810273 122.322768,10.300694 122.659434,10.4800273 C122.959422,10.6475282 123.295926,10.738865 123.639434,10.7460273 C124.023142,10.7679202 124.404135,10.6697008 124.729434,10.4650273 C124.982881,10.2864174 125.202337,10.0639136 125.377434,9.8080273 L128.221434,5.8930273 C126.309449,4.07474335 124.074391,2.62992549 121.631434,1.6330273 C118.814905,0.503446253 115.800532,-0.0501239822 112.766434,0.0050273013 C109.628497,-0.0351919535 106.513528,0.544914077 103.600434,1.7120273 C100.920605,2.79508405 98.4940167,4.42120825 96.4734342,6.4880273 C94.4488723,8.58549144 92.8734252,11.0738814 91.8434342,13.8010273 C90.718749,16.7879908 90.1612102,19.9585689 90.1994342,23.1500273 C90.1668904,26.3154152 90.6852859,29.4623336 91.7314342,32.4500273 C92.6808708,35.1705087 94.1818821,37.6656124 96.1404342,39.7790273 C98.0893666,41.8476679 100.453768,43.4807339 103.078434,44.5710273 C105.980488,45.7571872 109.092715,46.3433022 112.227434,46.2940273 L152.968434,46.2940273 L152.968434,46.2860273 C163.052434,46.2860273 167.942434,42.3140273 170.778434,38.3530273 C171.508516,37.3423989 172.076976,36.224371 172.463434,35.0390273 C172.487434,34.9700273 172.512434,34.9000273 172.534434,34.8290273 Z" id="Tracciato_15"></path>
            <g id="Raggruppa_11" transform="translate(0.000000, 0.503912)">
                <g id="Raggruppa_9">
                    <path d="M75.7474342,8.4451408e-05 L75.7474342,45.3241156 L83.2374342,45.2921156 L83.2374342,3.21911556 C83.2291684,1.43341091 81.7751411,-0.00763397489 79.9894342,8.4451408e-05 C79.9894342,8.4451408e-05 75.7474342,0.0861155615 75.7474342,8.4451408e-05 Z" id="Tracciato_16"></path>
                    <path d="M69.0554342,45.3211156 L69.0454342,45.3051156 L69.0454342,0 C69.0454342,0.0841155615 64.8024342,0 64.8024342,0 C63.944814,-0.00387154309 63.1207511,0.333065934 62.5116021,0.936776025 C61.9024532,1.54048612 61.5581387,2.36149411 61.5544342,3.21911556 L61.5544342,33.8291156 L40.3544342,1.34711556 C40.1608253,1.09923265 39.9499685,0.865318554 39.7234342,0.647115562 C39.3789281,0.305201443 38.926619,0.0931815609 38.4434342,0.0471155615 C38.1335453,0.0141726533 37.8220648,-0.00151821989 37.5104342,0 L29.4724342,0 L58.1974342,43.8501156 C58.5473998,44.3130114 58.9954385,44.6927515 59.5094342,44.9621156 C60.0412021,45.1975051 60.6192025,45.3099605 61.2004342,45.2911156 L61.5574342,45.2911156 L69.0484342,45.3231156 L69.0484342,45.3231156 L69.0554342,45.3211156 Z" id="Tracciato_17"></path>
                    <rect id="Rettangolo_2" x="90.2564342" y="56.7411156" width="85.544" height="7.268"></rect>
                    <g id="Raggruppa_8" transform="translate(0.000000, 52.557145)">
                        <path d="M8.65243417,8.92497014 C8.77111207,8.92535952 8.88450307,8.97411043 8.96643417,9.05997014 L9.81843417,9.97497014 C9.35187095,10.549767 8.75552223,11.0055968 8.07843417,11.3049701 C7.29369814,11.6312966 6.44903813,11.788712 5.59943417,11.7669701 C4.80249589,11.7793353 4.01129292,11.630347 3.27343417,11.3289701 C2.60677137,11.0517087 2.0060441,10.6370263 1.51043417,10.1119701 C1.01290394,9.57463887 0.631618618,8.94041158 0.390434172,8.24897014 C0.123853504,7.48932461 -0.00812594128,6.68898771 0.000434172206,5.88397014 C-0.00892725729,5.07280056 0.133171788,4.2670074 0.419434172,3.50797014 C0.680726191,2.81467404 1.08090933,2.18207161 1.59543417,1.64897014 C2.10989919,1.12374168 2.72706245,0.710143577 3.40843417,0.433970135 C4.14901957,0.137646685 4.94083486,-0.00950182065 5.73843417,0.000970135022 C6.509571,-0.0131805284 7.27570328,0.127600103 7.99143417,0.414970135 C8.61249008,0.668220466 9.18061831,1.03555352 9.66643417,1.49797014 L8.94243417,2.49797014 C8.89804338,2.56320428 8.84212877,2.61979664 8.77743417,2.66497014 C8.69486969,2.71632812 8.59853265,2.74111048 8.50143417,2.73597014 C8.41395761,2.7338417 8.32825134,2.71087242 8.25143417,2.66897014 C8.16543417,2.62397014 8.07243417,2.56897014 7.97043417,2.50197014 C7.86843417,2.43497014 7.75143417,2.36197014 7.61743417,2.28297014 C7.46882133,2.19578725 7.31249437,2.12247761 7.15043417,2.06397014 C6.950389,1.99144299 6.74468779,1.93558592 6.53543417,1.89697014 C6.26950982,1.8490536 5.99962026,1.82661861 5.72943417,1.82997014 C5.2403898,1.82420304 4.75526312,1.91775833 4.30343417,2.10497014 C3.8770293,2.28511983 3.49638136,2.55847562 3.18943417,2.90497014 C2.86581119,3.27657554 2.62027131,3.70950112 2.46743417,4.17797014 C2.28702338,4.73208563 2.19983858,5.31230388 2.20943417,5.89497014 C2.19980931,6.48242421 2.29357064,7.06699393 2.48643417,7.62197014 C2.65121813,8.09180091 2.90672595,8.52466922 3.23843417,8.89597014 C3.54871843,9.23764093 3.92948984,9.50786581 4.35443417,9.68797014 C4.79155335,9.87283714 5.26184267,9.96641859 5.73643417,9.96297014 C6.00387489,9.96490463 6.27114343,9.94886852 6.53643417,9.91497014 C6.76105391,9.88701058 6.98221204,9.8360772 7.19643417,9.76297014 C7.3953256,9.69475812 7.58639981,9.60559015 7.76643417,9.49697014 C7.95608646,9.37994551 8.13480899,9.24607095 8.30043417,9.09697014 C8.35118604,9.05046786 8.40804339,9.01110509 8.46943417,8.97997014 C8.52535471,8.94771919 8.5879993,8.92889158 8.65243417,8.92497014 L8.65243417,8.92497014 Z" id="Tracciato_18"></path>
                        <path d="M21.2574342,11.6399701 L19.5864342,11.6399701 C19.4222234,11.6472585 19.2605051,11.597825 19.1284342,11.4999701 C19.011532,11.4096273 18.9201963,11.290374 18.8634342,11.1539701 L17.9944342,8.80597014 L13.1834342,8.80597014 L12.3164342,11.1539701 C12.2660454,11.2865337 12.1798448,11.4025064 12.0674342,11.4889701 C11.9376096,11.5923211 11.7752913,11.6461909 11.6094342,11.6409701 L9.92143417,11.6409701 L14.4944342,0.127970135 L16.6934342,0.127970135 L21.2574342,11.6399701 Z M13.7374342,7.29297014 L17.4374342,7.29297014 L16.0234342,3.46297014 C15.9534342,3.29297014 15.8814342,3.09297014 15.8074342,2.86297014 C15.7334342,2.63297014 15.6581008,2.38230347 15.5814342,2.11097014 C15.5064342,2.38197014 15.4334342,2.63297014 15.3614342,2.86697014 C15.2894342,3.10097014 15.2174342,3.30497014 15.1484342,3.47997014 L13.7374342,7.29297014 Z" id="Tracciato_19"></path>
                        <path d="M28.5494342,7.39297014 C28.6274342,7.57597014 28.7034342,7.75997014 28.7774342,7.94497014 C28.8527675,7.74897014 28.9304342,7.55930347 29.0104342,7.37597014 C29.0904342,7.1926368 29.1761008,7.01630347 29.2674342,6.84697014 L32.6994342,0.469970135 C32.73504,0.399908461 32.7808755,0.335536533 32.8354342,0.278970135 C32.8798587,0.234598829 32.9334416,0.200469643 32.9924342,0.178970135 C33.0527471,0.156307473 33.1161194,0.142824 33.1804342,0.138970135 C33.2504342,0.133970135 33.3334342,0.130970135 33.4304342,0.130970135 L35.0604342,0.130970135 L35.0604342,11.6439701 L33.1604342,11.6439701 L33.1604342,4.20697014 C33.1604342,4.06997014 33.1604342,3.91797014 33.1724342,3.75297014 C33.1844342,3.58797014 33.1934342,3.42097014 33.2084342,3.25297014 L29.6974342,9.78197014 C29.5595477,10.0770872 29.2590015,10.2615848 28.9334342,10.2509701 L28.6334342,10.2509701 C28.3077962,10.2618517 28.0071146,10.077271 27.8694342,9.78197014 L24.3184342,3.22997014 C24.3344342,3.40497014 24.3484342,3.57597014 24.3584342,3.74297014 C24.3684342,3.90997014 24.3744342,4.06497014 24.3744342,4.20797014 L24.3744342,11.6449701 L22.4744342,11.6449701 L22.4744342,0.126970135 L24.1054342,0.126970135 C24.2014342,0.126970135 24.2844342,0.129636802 24.3544342,0.134970135 C24.4187469,0.13883898 24.482117,0.152321983 24.5424342,0.174970135 C24.6004686,0.196048239 24.6528357,0.230275076 24.6954342,0.274970135 C24.7478175,0.332415669 24.7922173,0.396660907 24.8274342,0.465970135 L28.3074342,6.85897014 C28.3874342,7.03197014 28.4714342,7.20797014 28.5494342,7.39297014 Z" id="Tracciato_20"></path>
                        <path d="M39.8094342,7.58397014 L39.8094342,11.6369701 L37.6484342,11.6369701 L37.6484342,0.126970135 L41.4234342,0.126970135 C42.1056815,0.113423727 42.7859576,0.204824239 43.4404342,0.397970135 C43.9561044,0.549864389 44.4345621,0.807312132 44.8454342,1.15397014 C45.2091773,1.46992471 45.4914709,1.86884031 45.6684342,2.31697014 C45.852472,2.78878358 45.9441338,3.29156579 45.9384342,3.79797014 C45.9449238,4.32202071 45.8494873,4.84233635 45.6574342,5.32997014 C45.4735752,5.7903391 45.184536,6.20129531 44.8134342,6.52997014 C44.4028478,6.88473447 43.9230465,7.15034485 43.4044342,7.30997014 C42.7629392,7.5068269 42.0943469,7.60099008 41.4234342,7.58897014 L39.8094342,7.58397014 Z M39.8094342,5.91197014 L41.4234342,5.91197014 C41.7747464,5.91888382 42.1248842,5.86925002 42.4604342,5.76497014 C42.733315,5.67917762 42.9841618,5.53481273 43.1954342,5.34197014 C43.3920386,5.15673523 43.5418185,4.92743836 43.6324342,4.67297014 C43.7328153,4.39096569 43.7819226,4.09327387 43.7774342,3.79397014 C43.781693,3.50869667 43.7325127,3.22514681 43.6324342,2.95797014 C43.5401732,2.71455566 43.3918276,2.49631976 43.1994342,2.32097014 C42.9878015,2.13599805 42.7383207,1.9994833 42.4684342,1.92097014 C42.1292556,1.82139363 41.7768625,1.77418307 41.4234342,1.78097014 L39.8094342,1.78097014 L39.8094342,5.91197014 Z" id="Tracciato_21"></path>
                        <path d="M56.7364342,11.6399701 L55.0654342,11.6399701 C54.9012234,11.6472585 54.7395051,11.597825 54.6074342,11.4999701 C54.490499,11.4096601 54.399156,11.2903973 54.3424342,11.1539701 L53.4734342,8.80597014 L48.6604342,8.80597014 L47.7934342,11.1539701 C47.7429991,11.2865083 47.6568071,11.4024693 47.5444342,11.4889701 C47.4146096,11.5923211 47.2522913,11.6461909 47.0864342,11.6409701 L45.3994342,11.6409701 L49.9704342,0.127970135 L52.1704342,0.127970135 L56.7364342,11.6399701 Z M49.2164342,7.29297014 L52.9164342,7.29297014 L51.5014342,3.46297014 C51.4324342,3.29297014 51.3604342,3.09197014 51.2854342,2.86297014 C51.2104342,2.63397014 51.1354342,2.38197014 51.0594342,2.11097014 C50.9854342,2.3816368 50.9121008,2.6336368 50.8394342,2.86697014 C50.7667675,3.10030347 50.6957675,3.3046368 50.6264342,3.47997014 L49.2164342,7.29297014 Z" id="Tracciato_22"></path>
                        <path d="M59.3124342,0.138970135 C59.4348582,0.150291876 59.549471,0.204060853 59.6364342,0.290970135 C59.6946547,0.346378011 59.7484833,0.406224694 59.7974342,0.469970135 L65.8884342,8.17797014 C65.8714342,7.99097014 65.8584342,7.80897014 65.8484342,7.62797014 C65.8384342,7.44697014 65.8314342,7.28097014 65.8314342,7.12797014 L65.8314342,0.127970135 L67.7314342,0.127970135 L67.7314342,11.6409701 L66.6234342,11.6409701 C66.3222515,11.6599377 66.032874,11.5209304 65.8594342,11.2739701 L59.7934342,3.60797014 C59.8104342,3.77697014 59.8214342,3.94597014 59.8294342,4.10797014 C59.8374342,4.26997014 59.8414342,4.42797014 59.8414342,4.56697014 L59.8414342,11.6369701 L57.9414342,11.6369701 L57.9414342,0.126933072 L59.0754342,0.126933072 C59.1545972,0.126499802 59.2337235,0.130506197 59.3124342,0.138970135 Z" id="Tracciato_23"></path>
                        <polygon id="Tracciato_24" points="72.4914342 11.6399701 70.3224342 11.6399701 70.3224342 0.126970135 72.4914342 0.126970135"></polygon>
                        <path d="M85.0404342,11.6399701 L83.3694342,11.6399701 C83.2051713,11.6476718 83.0433172,11.5981968 82.9114342,11.4999701 C82.7942638,11.4096548 82.7025967,11.2904187 82.6454342,11.1539701 L81.7784342,8.80597014 L76.9654342,8.80597014 L76.0984342,11.1539701 C76.0475879,11.2862825 75.9614723,11.4021407 75.8494342,11.4889701 C75.7193448,11.5925469 75.5566316,11.6464302 75.3904342,11.6409701 L73.7034342,11.6409701 L78.2794342,0.126970135 L80.4794342,0.126970135 L85.0404342,11.6399701 Z M77.5194342,7.29297014 L81.2194342,7.29297014 L79.8064342,3.46297014 C79.7364342,3.29297014 79.6637675,3.09297014 79.5884342,2.86297014 C79.5134342,2.63197014 79.4394342,2.38197014 79.3644342,2.11097014 C79.2891008,2.3816368 79.2151008,2.6336368 79.1424342,2.86697014 C79.0697675,3.10030347 78.9987675,3.3046368 78.9294342,3.47997014 L77.5194342,7.29297014 Z" id="Tracciato_25"></path>
                    </g>
                </g>
                <g id="Raggruppa_10" transform="translate(0.108396, 0.000089)">
                    <path d="M29.3940384,0.0510268253 L29.3940384,27.1260268 C29.4162636,28.7209976 29.1764052,30.3087923 28.6840384,31.8260268 C28.2547545,33.1425023 27.5593543,34.3566445 26.6410384,35.3930268 C25.7353053,36.3899701 24.6175527,37.1711325 23.3700384,37.6790268 C20.5312709,38.7645374 17.391806,38.7645374 14.5530384,37.6790268 C13.2993456,37.1669449 12.1759605,36.381122 11.2650384,35.3790268 C10.3412571,34.3375164 9.64204569,33.1167899 9.21103844,31.7930268 C8.71804628,30.2758931 8.4775132,28.6881045 8.49903844,27.0930268 L8.49403844,3.21902683 C8.48632255,1.43387537 7.03319207,-0.0071680698 5.24803844,0 L0.0010384384,0 L0.0010384384,27.1250268 C-0.024463879,29.6740868 0.419956077,32.2060263 1.31203844,34.5940268 C2.98324812,39.1120656 6.52784967,42.6858408 11.0320384,44.3940268 C16.1464695,46.2523239 21.7516074,46.2523239 26.8660384,44.3940268 C31.3697006,42.6853746 34.9138231,39.1117148 36.5850384,34.5940268 C37.4774839,32.2060966 37.9222439,29.674151 37.8970384,27.1250268 L37.8970384,13.0250268 L29.3940384,0.0510268253 Z" id="Tracciato_26"></path>
                </g>
            </g>
            <g id="Raggruppa_12" transform="translate(129.464372, -0.000000)">
                <path d="M46.3030626,23.1500273 C46.3127681,21.0187071 46.0632703,18.8941144 45.5600626,16.8230273 C45.0879775,14.8771714 44.3599667,13.0025015 43.3950626,11.2480273 C42.4569182,9.54834338 41.2930183,7.9834698 39.9350626,6.5960273 C38.5745494,5.20730132 37.0261638,4.01605422 35.3350626,3.0570273 C33.5671384,2.0617849 31.6758915,1.303605 29.7100626,0.802027301 C27.5721159,0.257356209 25.3732584,-0.011493866 23.1670626,0.0020273013 C19.933868,-0.0392946517 16.7237431,0.551436264 13.7170626,1.7410273 C8.17188162,3.93315617 3.80249443,8.3537046 1.6750626,13.9240273 C-0.558354201,19.8709126 -0.558354201,26.426142 1.6750626,32.3730273 C2.65641873,34.8645691 4.07466427,37.1609213 5.8630626,39.1540273 L22.1160626,39.1540273 C20.4061191,39.0513777 18.7259657,38.6594884 17.1470626,37.9950273 C15.4147994,37.2972562 13.8600333,36.2217994 12.5960626,34.8470273 C11.2936714,33.3962789 10.3086405,31.6895049 9.7040626,29.8360273 C8.3556552,25.4796492 8.3556552,20.8174054 9.7040626,16.4610273 C10.3109568,14.6040992 11.2956084,12.8928755 12.5960626,11.4350273 C13.856504,10.0525598 15.4119404,8.97151269 17.1470626,8.2720273 C19.0626351,7.5145113 21.1083852,7.14076524 23.1680626,7.1720273 C23.7800626,7.1720273 24.3680626,7.2020273 24.9510626,7.2580273 C35.6030626,8.0290273 44.0160626,17.2200273 44.0160626,28.4500273 C44.0375155,31.3992287 43.4060877,34.3166369 42.1670626,36.9930273 C43.1422368,35.5371112 43.9722125,33.9890289 44.6450626,32.3710273 C45.7710955,29.4285324 46.3335426,26.3004713 46.3030626,23.1500273 Z" id="Tracciato_28"></path>
            </g>
        </g>
    </g>
</svg>