<?xml version="1.0" encoding="UTF-8"?>
<svg width="390px" height="844px" viewBox="0 0 390 844" version="1.1" xmlns="http://www.w3.org/2000/svg" xmlns:xlink="http://www.w3.org/1999/xlink">
    <title>iPhone 13</title>
    <g id="iPhone-13" stroke="none" stroke-width="1" fill="none" fill-rule="evenodd">
        <rect fill="#FFFFFF" x="0" y="0" width="390" height="844"></rect>
        <g id="Background" opacity="0.25" transform="translate(-11.000000, 34.000000)">
            <g id="Group-2">
                <polygon id="Rectangle" fill="#013365" points="0 259.687841 404 2.40667626e-17 403.098461 78.6060706 0.901538591 331.997705"></polygon>
                <polygon id="Rectangle" fill="#99CC33" points="0 702.687841 404 443 403.098461 521.606071 0.901538591 774.997705"></polygon>
                <polygon id="Rectangle" fill="#009966" points="7 586.687841 411 327 410.098461 405.606071 7.90153859 658.997705"></polygon>
                <polygon id="Rectangle" fill="#0099CB" points="7 478.687841 411 219 410.098461 297.606071 7.90153859 550.997705"></polygon>
                <polygon id="Rectangle" fill="#0065CC" points="7 369.687841 411 110 410.098461 188.606071 7.90153859 441.997705"></polygon>
            </g>
        </g>
        <g id="logo-unico-campania2" transform="translate(69.000000, 375.000000)" fill-rule="nonzero">
            <path d="M247.652095,49.651168 C247.827851,49.0809197 247.983602,48.4864358 248.129351,47.8933775 C248.215086,47.545526 248.290818,47.1962489 248.360835,46.8455462 C248.396558,46.6873023 248.425136,46.5262071 248.456572,46.3651119 C248.716977,44.9788064 248.884057,43.5766614 248.956691,42.1680841 C248.979554,41.6363275 248.99813,41.1031453 249,40.5642606 C249.076941,26.1537667 238.967544,13.6840002 224.826655,10.7474002 C225.80546,11.0325244 240.783315,15.7028584 239.777361,35.4690917 C239.31868,44.5032511 234.180313,56.2988381 217.434894,55.8212551 L162.250314,55.8212551 C159.58283,55.8419567 156.939349,55.3174862 154.482749,54.280159 C152.09351,53.268702 149.951702,51.7538257 148.20411,49.83935 C146.340019,47.7573431 144.905232,45.329393 143.981675,42.6941382 C142.894762,39.5793516 142.3675,36.297589 142.424161,32.9999163 C142.372062,29.7348376 142.860157,26.4835458 143.868791,23.3769755 C144.727441,20.7462658 146.110214,18.3158619 147.934046,16.2317637 C149.659672,14.2974509 151.796445,12.771986 154.188393,11.7667191 C156.728581,10.7178535 159.455651,10.1940652 162.204589,10.2270486 C163.725993,10.2104212 165.245546,10.3378728 166.742814,10.6076894 C167.918513,10.8239634 169.074185,11.1372504 170.197923,11.5443223 C171.105868,11.8748774 171.982414,12.2856619 172.817118,12.7717819 C173.569679,13.2194268 174.232217,13.62858 174.804735,13.9992414 C175.377252,14.3699029 175.904044,14.6830642 176.385111,14.9387256 C176.813767,15.1775184 177.294602,15.3077301 177.785445,15.3179407 C178.333729,15.3491517 178.878135,15.2091281 179.342959,14.9173413 C179.705112,14.6627112 180.018696,14.3455052 180.268894,13.9807084 L184.33272,8.39940266 C181.600662,5.80721913 178.40696,3.74745663 174.91619,2.32625778 C170.891618,0.715903466 166.584344,-0.0732778128 162.248886,0.00534700764 C157.765049,-0.0519904012 153.314033,0.77502086 149.151479,2.43888183 C145.322239,3.98291013 141.854858,6.30114671 138.967623,9.24764708 C136.074703,12.2378357 133.823527,15.7853363 132.351761,19.6732125 C130.744685,23.93149 129.948011,28.4515323 130.00263,33.0013419 C129.956127,37.513985 130.696869,42.0002975 132.191723,46.259616 C133.548384,50.137991 135.693197,53.6950629 138.491795,56.7079913 C141.276648,59.6570885 144.65517,61.9852214 148.405587,63.5395665 C152.552366,65.2305808 156.999464,66.0661586 161.478702,65.9959113 L219.694004,65.9959113 L219.694004,65.9845063 C234.103152,65.9845063 241.090531,60.3219402 245.142925,54.675056 C246.186148,53.234283 246.998428,51.6403991 247.550642,49.9505484 C247.584936,49.8521806 247.620659,49.7523871 247.652095,49.651168 Z" id="Tracciato_15" fill="#009966"></path>
            <g id="Raggruppa_11" transform="translate(0.000000, 1.000000)">
                <g id="Raggruppa_9">
                    <path d="M108.579672,0.000120783476 L108.579672,64.8231253 L119.316164,64.7773585 L119.316164,4.60401993 C119.304315,2.05008247 117.220049,-0.0109182078 114.660339,0.000120783476 C114.660339,0.000120783476 108.579672,0.123163569 108.579672,0.000120783476 Z" id="Tracciato_16" fill="#0099CC"></path>
                    <path d="M98.9870673,64.8188347 L98.9727329,64.7959513 L98.9727329,0 C98.9727329,0.120303144 92.8906319,0 92.8906319,0 C91.6612817,-0.00553713007 90.480034,0.476355126 89.6068534,1.33978896 C88.7336728,2.2032228 88.2401175,3.37743884 88.2348072,4.60401993 L88.2348072,48.3828304 L57.8458037,1.92666177 C57.5682764,1.57213648 57.266025,1.23758958 56.9413008,0.925512889 C56.4474709,0.436502977 55.7991113,0.133269451 55.1064931,0.0673852741 C54.6622849,0.0202699086 54.2157952,-0.00217137736 53.7690903,0 L42.2470709,0 L83.4227372,62.7149918 C83.9243932,63.3770313 84.5666314,63.9201405 85.3034151,64.3053883 C86.0656745,64.6420455 86.8942053,64.8028807 87.7273682,64.7759283 L88.2391075,64.7759283 L98.9770332,64.8216951 L98.9770332,64.8216951 L98.9870673,64.8188347 Z" id="Tracciato_17" fill="#0066CC"></path>
                    <rect id="Rettangolo_2" fill="#003366" x="129.377504" y="81.1518636" width="122.622496" height="10.3947858"></rect>
                    <g id="Raggruppa_8" transform="translate(0.000000, 75.167896)" fill="#003366">
                        <path d="M12.402776,12.7646056 C12.5728941,12.7651625 12.7354337,12.8348866 12.8528773,12.9576843 L14.0741712,14.2663289 C13.4053792,15.0884106 12.5505469,15.7403442 11.5799794,16.1685118 C10.4551046,16.635228 9.24433216,16.8603656 8.02647285,16.82927 C6.8841068,16.8469549 5.749962,16.6338698 4.69228313,16.2028369 C3.73665963,15.8062941 2.875551,15.21321 2.16512214,14.462268 C1.45194063,13.69377 0.905389639,12.7866901 0.559665349,11.7977818 C0.177537008,10.7113271 -0.0116480782,9.56667513 0.000622361352,8.41532877 C-0.0127967195,7.25518374 0.190894242,6.10272814 0.601235212,5.01714341 C0.975782574,4.02558253 1.54942251,3.12082651 2.28696484,2.35837802 C3.02442141,1.60718961 3.9090901,1.01565636 4.88579801,0.620669595 C5.94738538,0.196864036 7.08240791,-0.0135896245 8.2257215,0.00138749942 C9.33110262,-0.018850959 10.42931,0.182495287 11.4552698,0.593495554 C12.3455184,0.955697391 13.1598982,1.48106179 13.8562878,2.1424159 L12.8184747,3.57262859 C12.754843,3.66592729 12.6746925,3.74686641 12.5819565,3.81147411 C12.4636049,3.88492696 12.3255112,3.92037099 12.1863261,3.91301921 C12.0609333,3.90997509 11.9380782,3.87712413 11.8279652,3.81719496 C11.704689,3.75283539 11.5713788,3.67417369 11.4251675,3.57834944 C11.2789563,3.48252519 11.1112434,3.37811967 10.9191619,3.26513286 C10.7061338,3.14044279 10.482048,3.03559441 10.2497438,2.95191628 C9.96299034,2.84818705 9.66812927,2.76829955 9.36817602,2.71307076 C8.98698847,2.64453992 8.60011702,2.61245312 8.21282051,2.61724651 C7.51180301,2.60899834 6.81640128,2.7428023 6.16872999,3.010555 C5.55750268,3.26820738 5.01186534,3.65916431 4.57187387,4.15472516 C4.10797859,4.68619993 3.75601104,5.30537558 3.53692762,5.97538591 C3.27831894,6.76788893 3.15334444,7.59772444 3.16709918,8.43106111 C3.15330249,9.27124538 3.28770406,10.1073044 3.56416305,10.9010384 C3.80037155,11.5729964 4.1666276,12.1920901 4.6421126,12.7231294 C5.08688757,13.2117913 5.6327019,13.5982704 6.24183562,13.8558578 C6.86842128,14.120257 7.54255449,14.2540984 8.22285461,14.2491663 C8.60621579,14.2519331 8.98933015,14.228998 9.36960946,14.1805161 C9.69158918,14.140528 10.0086069,14.0676824 10.3156822,13.9631238 C10.6007818,13.8655661 10.8746759,13.7380369 11.132745,13.5826872 C11.4046009,13.4153171 11.6607895,13.223848 11.8982039,13.0106021 C11.9709538,12.944094 12.0524556,12.8877969 12.1404559,12.8432673 C12.2206148,12.7971416 12.3104123,12.7702141 12.402776,12.7646056 L12.402776,12.7646056 Z" id="Tracciato_18"></path>
                        <path d="M30.4713321,16.647633 L28.0760479,16.647633 C27.840661,16.658057 27.6088469,16.5873565 27.4195308,16.4474032 C27.251958,16.3181938 27.1210336,16.1476362 27.0396682,15.9525497 L25.7940058,12.5944103 L18.8977088,12.5944103 L17.6549132,15.9525497 C17.5826838,16.1421438 17.4591201,16.3080094 17.2979858,16.4316709 C17.1118895,16.5794847 16.8792155,16.65653 16.6414686,16.6490632 L14.2218159,16.6490632 L20.7769533,0.183024511 L23.9290957,0.183024511 L30.4713321,16.647633 Z M19.6918365,10.4304985 L24.9955777,10.4304985 L22.9686885,4.95278384 C22.8683475,4.70964768 22.7651395,4.42360514 22.6590647,4.09465622 C22.5529899,3.7657073 22.4450038,3.40720066 22.3351065,3.01913628 C22.2275982,3.40672392 22.1229568,3.7657073 22.0197489,4.10037707 C21.9165409,4.43504684 21.813333,4.72681023 21.7144254,4.97709746 L19.6918365,10.4304985 Z" id="Tracciato_19"></path>
                        <path d="M40.9240025,10.5735197 C41.0358111,10.8352486 41.1447528,11.0984078 41.2508277,11.3629971 C41.3588137,11.0826754 41.4701445,10.8114118 41.58482,10.5492061 C41.6994955,10.2870004 41.8222938,10.0348063 41.953215,9.79262359 L46.8727933,0.672157252 C46.9238322,0.571954157 46.9895348,0.479888608 47.0677416,0.398986628 C47.1314217,0.335526223 47.2082297,0.286714229 47.2927923,0.255965359 C47.3792474,0.223552932 47.470088,0.204268697 47.5622796,0.198756851 C47.6626207,0.191605787 47.7815965,0.187315149 47.9206405,0.187315149 L50.2571535,0.187315149 L50.2571535,16.6533539 L47.5336108,16.6533539 L47.5336108,6.01686208 C47.5336108,5.82092294 47.5336108,5.60353061 47.5508121,5.36754552 C47.5680134,5.13156043 47.5809144,4.89271491 47.6024161,4.65243917 L42.5695957,13.9902978 C42.3719432,14.412378 41.9411272,14.6762488 41.4744448,14.6610676 L41.0444118,14.6610676 C40.5776281,14.6766305 40.1466181,14.4126409 39.9492609,13.9902978 L34.8591028,4.61954428 C34.8820379,4.8698315 34.9021061,5.11439787 34.9164406,5.35324339 C34.930775,5.59208891 34.9393757,5.81377188 34.9393757,6.01829229 L34.9393757,16.6547841 L32.2158329,16.6547841 L32.2158329,0.181594299 L34.5537793,0.181594299 C34.6913899,0.181594299 34.8103657,0.185408199 34.9107068,0.193036 C35.0028955,0.198569271 35.093733,0.217852834 35.1801942,0.250244508 C35.2633833,0.280390679 35.3384485,0.329342336 35.399511,0.393265777 C35.4745995,0.475425109 35.5382442,0.567309463 35.5887256,0.666436401 L40.5771092,9.80978614 C40.6917847,10.0572129 40.8121939,10.3089304 40.9240025,10.5735197 Z" id="Tracciato_20"></path>
                        <path d="M57.064577,10.8466903 L57.064577,16.6433424 L53.9669055,16.6433424 L53.9669055,0.181594299 L59.3781549,0.181594299 C60.3561179,0.162220054 61.3312554,0.292942227 62.2694106,0.569181938 C63.0085947,0.786423028 63.6944369,1.15462806 64.2833988,1.65042273 C64.8048039,2.10230497 65.209456,2.67283914 65.4631228,3.31376009 C65.7269306,3.98855367 65.8583227,4.70763917 65.8501526,5.43190509 C65.8594551,6.18140888 65.7226523,6.9255709 65.4473549,7.62299094 C65.1838035,8.28141647 64.7694821,8.86917126 64.2375286,9.33924617 C63.6489761,9.84663462 62.961208,10.226514 62.2178066,10.4548121 C61.2982598,10.7363591 60.3398704,10.8710325 59.3781549,10.8538414 L57.064577,10.8466903 Z M57.064577,8.45537472 L59.3781549,8.45537472 C59.8817412,8.46526276 60.3836439,8.39427588 60.8646359,8.24513346 C61.2557951,8.12243191 61.6153698,7.91595941 61.9182169,7.64015349 C62.2000383,7.37522818 62.4147393,7.04728488 62.5446317,6.6833412 C62.6885224,6.28001486 62.7589149,5.85425225 62.752481,5.42618424 C62.7585858,5.01818252 62.6880886,4.6126459 62.5446317,4.23052643 C62.4123808,3.88239195 62.1997357,3.5702682 61.9239507,3.31948095 C61.6205871,3.05493152 61.2629706,2.85968639 60.8761034,2.74739587 C60.38991,2.60498029 59.8847744,2.53745915 59.3781549,2.54716609 L57.064577,2.54716609 L57.064577,8.45537472 Z" id="Tracciato_21"></path>
                        <path d="M81.3284761,16.647633 L78.9331919,16.647633 C78.6978051,16.658057 78.465991,16.5873565 78.2766748,16.4474032 C78.1090548,16.3182407 77.9781198,16.1476695 77.8968122,15.9525497 L76.6511498,12.5944103 L69.7519859,12.5944103 L68.5091904,15.9525497 C68.4368945,16.1421074 68.3133432,16.3079564 68.1522629,16.4316709 C67.9661667,16.5794847 67.7334926,16.65653 67.4957458,16.6490632 L65.0775265,16.6490632 L71.629797,0.183024511 L74.7833728,0.183024511 L81.3284761,16.647633 Z M70.5489806,10.4304985 L75.8527217,10.4304985 L73.8243991,4.95278384 C73.7254915,4.70964768 73.6222835,4.42217493 73.5147753,4.09465622 C73.407267,3.76713752 73.2997587,3.40672392 73.190817,3.01913628 C73.0847422,3.40624718 72.979623,3.76666078 72.8754594,4.10037707 C72.7712959,4.43409337 72.6695214,4.7263335 72.570136,4.97709746 L70.5489806,10.4304985 Z" id="Tracciato_22"></path>
                        <path d="M85.0210267,0.198756851 C85.1965146,0.214949348 85.3608056,0.291850422 85.4854624,0.41614918 C85.5689183,0.495394228 85.6460786,0.580987713 85.7162468,0.672157252 L94.4473516,11.6962367 C94.422983,11.4287869 94.4043483,11.1684882 94.3900138,10.9096197 C94.3756794,10.6507512 94.3656453,10.4133359 94.3656453,10.1945134 L94.3656453,0.183024511 L97.089188,0.183024511 L97.089188,16.6490632 L95.5009326,16.6490632 C95.0692043,16.6761908 94.6543979,16.4773809 94.4057817,16.1241752 L85.7105131,5.16016468 C85.7348816,5.40187062 85.7506495,5.64357657 85.762117,5.87527103 C85.7735846,6.10696548 85.7793184,6.33293909 85.7793184,6.53173865 L85.7793184,16.6433424 L83.0557756,16.6433424 L83.0557756,0.18154129 L84.6813006,0.18154129 C84.7947763,0.180921622 84.9081994,0.186651619 85.0210267,0.198756851 Z" id="Tracciato_23"></path>
                        <polygon id="Tracciato_24" points="103.912379 16.647633 100.80324 16.647633 100.80324 0.181594299 103.912379 0.181594299"></polygon>
                        <path d="M121.900663,16.647633 L119.505378,16.647633 C119.269917,16.6586481 119.037908,16.5878883 118.848861,16.4474032 C118.680904,16.3182331 118.549505,16.1477001 118.467565,15.9525497 L117.22477,12.5944103 L110.325606,12.5944103 L109.08281,15.9525497 C109.009925,16.1417845 108.886483,16.3074863 108.725883,16.4316709 C108.539407,16.5798077 108.306167,16.6568722 108.067932,16.6490632 L105.649713,16.6490632 L112.209151,0.181594299 L115.362727,0.181594299 L121.900663,16.647633 Z M111.119734,10.4304985 L116.423475,10.4304985 L114.398019,4.95278384 C114.297678,4.70964768 114.193514,4.42360514 114.085528,4.09465622 C113.97802,3.76427709 113.871945,3.40672392 113.764437,3.01913628 C113.656451,3.40624718 113.550376,3.76666078 113.446212,4.10037707 C113.342049,4.43409337 113.240274,4.7263335 113.140889,4.97709746 L111.119734,10.4304985 Z" id="Tracciato_25"></path>
                    </g>
                </g>
                <g id="Raggruppa_10" transform="translate(0.155379, 0.000127)" fill="#003366">
                    <path d="M42.1346951,0.0729792132 L42.1346951,38.7959879 C42.1665536,41.0771353 41.8227302,43.3480194 41.1169501,45.5179875 C40.5015959,47.4008275 39.5047789,49.137309 38.1884249,50.6195562 C36.8901076,52.0453971 35.2878723,53.1626255 33.4996311,53.8890224 C29.4304181,55.4415333 24.9301722,55.4415333 20.8609592,53.8890224 C19.0638613,53.1566364 17.4535521,52.0327424 16.1477968,50.5995332 C14.8236084,49.1099517 13.8213283,47.3640532 13.2035037,45.4707905 C12.4968273,43.3009665 12.1520367,41.0300911 12.1828919,38.7487908 L12.1757247,4.60389302 C12.1646644,2.05074676 10.0816839,-0.0102518644 7.5227669,0 L0.00148854284,0 L0.00148854284,38.7945576 C-0.0350675898,42.4402556 0.601983334,46.0614676 1.88073305,49.4768162 C4.2763178,55.9385726 9.35730407,61.0498313 15.8138044,63.4929006 C23.1450527,66.1506607 31.1797015,66.1506607 38.5109498,63.4929006 C44.9666953,61.0491646 50.0469948,55.9380709 52.4425877,49.4768162 C53.7218579,46.0615681 54.3593963,42.4403474 54.3232656,38.7945576 L54.3232656,18.6285587 L42.1346951,0.0729792132 Z" id="Tracciato_26"></path>
                </g>
            </g>
            <g id="Raggruppa_12" transform="translate(186.000000, 0.000000)" fill="#99CC33">
                <path d="M65.9983243,33.1102984 C66.0121581,30.0619803 65.6565351,27.0232842 64.9392852,24.0611144 C64.2663961,21.2780563 63.2287218,18.596812 61.8533905,16.0874774 C60.5162013,13.6565065 58.8572301,11.418348 56.9216606,9.43396004 C54.9824456,7.44773639 52.7754457,5.74395667 50.3650253,4.37230959 C47.8451049,2.94886535 45.1494057,1.86447947 42.3474007,1.14709857 C39.3000667,0.368083406 36.165913,-0.0164390879 33.0212998,0.00289954522 C28.4128481,-0.0562011279 23.837279,0.788691047 19.5516904,2.49010218 C11.6478363,5.62539184 5.41990629,11.9478759 2.38755967,19.9148231 C-0.795853223,28.4203487 -0.795853223,37.7959575 2.38755967,46.301483 C3.78634101,49.8650076 5.80784507,53.1493625 8.35694844,56 L31.5232512,56 C29.0859739,55.8531855 26.691158,55.2926863 24.4406597,54.3423417 C21.971569,53.3443554 19.7554745,51.8061846 17.9538669,49.8399185 C16.0974965,47.7649873 14.6934773,45.323876 13.8317389,42.6729418 C11.909779,36.4422374 11.909779,29.7740687 13.8317389,23.5433643 C14.6967789,20.8874951 16.1002574,18.4400196 17.9538669,16.3549339 C19.750444,14.3776615 21.9674938,12.8314951 24.4406597,11.831057 C27.1710315,10.7476207 30.0869526,10.2130708 33.0227251,10.2577833 C33.8950427,10.2577833 34.7331517,10.3006908 35.564134,10.3807847 C50.7470206,11.4835065 62.7385363,24.6289231 62.7385363,40.690617 C62.7691143,44.9087087 61.8691052,49.0813282 60.103054,52.9092324 C61.4930239,50.8269101 62.6760344,48.6127673 63.6350849,46.2986225 C65.240082,42.0901227 66.0417692,37.6162171 65.9983243,33.1102984 Z" id="Tracciato_28"></path>
            </g>
        </g>
    </g>
</svg>