<svg xmlns="http://www.w3.org/2000/svg" viewBox="0 0 390 350"><defs><style>.cls-1{fill:#fff;}.cls-2{fill:#013365;}.cls-3{fill:#9c3;}.cls-4{fill:#096;}.cls-5{fill:#0099cb;}.cls-6{fill:#0065cc;}</style></defs><title>pressedSubBackground</title><g id="Layer_2" data-name="Layer 2"><g id="Layer_1-2" data-name="Layer 1"><polygon class="cls-1" points="63.09 0 0 0 0 350 269.41 350 63.09 0"/><polygon class="cls-2" points="336.72 350 130.4 0 63.09 0 269.41 350 336.72 350"/><polygon class="cls-3" points="390 0 339.56 0 390 87.3 390 0"/><polygon class="cls-4" points="390 87.3 339.56 0 271.56 0 390 205 390 87.3"/><polygon class="cls-5" points="390 205 271.56 0 203.29 0 390 323.16 390 205"/><polygon class="cls-6" points="390 350 390 323.16 203.29 0 130.4 0 336.72 350 390 350"/></g></g></svg>